<?xml version="1.0" standalone="no"?>
<!DOCTYPE svg PUBLIC "-//W3C//DTD SVG 20010904//EN"
 "http://www.w3.org/TR/2001/REC-SVG-20010904/DTD/svg10.dtd">
<svg version="1.0" xmlns="http://www.w3.org/2000/svg"
 width="89.000000pt" height="70.000000pt" viewBox="0 0 89.000000 70.000000"
 preserveAspectRatio="xMidYMid meet">
<metadata>
Created by potrace 1.10, written by Peter Selinger 2001-2011
</metadata>
<g transform="translate(0.000000,70.000000) scale(0.100000,-0.100000)"
fill="#7f9488" stroke="none">
<path d="M480 343 c1 -26 22 -35 92 -38 72 -3 118 -16 118 -34 0 -4 -28 -26
-62 -47 -66 -41 -93 -54 -68 -32 35 31 43 47 30 63 -9 11 -10 18 -1 29 9 11 3
12 -36 5 -27 -4 -108 -12 -181 -17 -73 -6 -136 -13 -139 -16 -4 -4 0 -13 8
-21 13 -13 36 -13 179 -2 149 12 197 12 163 0 -34 -12 -63 -46 -63 -75 0 -35
-7 -38 103 36 78 51 88 61 85 85 -3 23 -11 28 -78 48 -75 22 -150 30 -150 16z"/>
</g>
</svg>
